<svg id="eL7c30br8oY1" xmlns="http://www.w3.org/2000/svg" xmlns:xlink="http://www.w3.org/1999/xlink" viewBox="0 0 500 500" shape-rendering="geometricPrecision" text-rendering="geometricPrecision"><defs>
<filter id="eL7c30br8oY3-filter" x="-150%" width="400%" y="-150%" height="400%">
<feGaussianBlur id="eL7c30br8oY3-filter-blur-0" stdDeviation="0,0" result="result"/>
<feGaussianBlur id="eL7c30br8oY3-filter-drop-shadow-0-blur" in="result" stdDeviation="0,0"/>
<feOffset id="eL7c30br8oY3-filter-drop-shadow-0-offset" dx="0" dy="0" result="tmp"/>
<feFlood id="eL7c30br8oY3-filter-drop-shadow-0-flood" flood-color="#000"/>
<feComposite id="eL7c30br8oY3-filter-drop-shadow-0-composite" operator="in" in2="tmp"/>
<feMerge id="eL7c30br8oY3-filter-drop-shadow-0-merge" result="result">
<feMergeNode id="eL7c30br8oY3-filter-drop-shadow-0-merge-node-1"/>
<feMergeNode id="eL7c30br8oY3-filter-drop-shadow-0-merge-node-2" in="result"/></feMerge>
<feComponentTransfer id="eL7c30br8oY3-filter-contrast-0" result="result">
<feFuncR id="eL7c30br8oY3-filter-contrast-0-R" type="linear" slope="1" intercept="0"/>
<feFuncG id="eL7c30br8oY3-filter-contrast-0-G" type="linear" slope="1" intercept="0"/>
<feFuncB id="eL7c30br8oY3-filter-contrast-0-B" type="linear" slope="1" intercept="0"/>
</feComponentTransfer>
<feColorMatrix id="eL7c30br8oY3-filter-hue-rotate-0" type="hueRotate" values="0" result="result"/>
</filter>
<radialGradient id="eL7c30br8oY3-fill" cx="0" cy="0" r="1.158375" spreadMethod="pad" gradientUnits="objectBoundingBox" gradientTransform="translate(0.017606 0.059709)">
<stop id="eL7c30br8oY3-fill-0" offset="0%" stop-color="#f9f9f9"/>
<stop id="eL7c30br8oY3-fill-1" offset="34%" stop-color="#f9f9f9"/>
<stop id="eL7c30br8oY3-fill-2" offset="56%" stop-color="#f9f9f9"/>
<stop id="eL7c30br8oY3-fill-3" offset="100%" stop-color="#f9f9f9"/>
</radialGradient>
</defs>
<g clip-rule="evenodd">
<path d="m 371 124.5 l 0 0 c 5 -0.5 9 3.474 8.5 6.5 l -12.5 59.5 l 81.5 54 c 1.333 3.333 1.333 6.667 0 10 L 365.5 310 l 14 62 C 380 376 376 380 372 379.5 L 308.5 367 l -54 81.5 c -3.333 1.333 -6.667 1.333 -10 0 l -54 -81.5 l -59.5 12.5 C 127 380 123 376 123.5 372 L 136 311.5 l -85.5 -57 c -1.3333 -3.333 -1.3333 -6.667 0 -10 L 135 188.5 L 121.5 132 c -0.5 -6 3.5 -9 9.5 -8.5 L 188.5 135 l 56 -84.5 c 3.333 -1.3333 6.667 -1.3333 10 0 L 311.5 135 Z" opacity="0.999" clip-rule="evenodd" filter="url(#eL7c30br8oY3-filter)" fill="url(#eL7c30br8oY3-fill)" fill-rule="evenodd"/></g></svg>
